<mxfile host="app.diagrams.net" modified="2024-06-20T05:33:53.646Z" agent="Mozilla/5.0 (Windows NT 10.0; Win64; x64) AppleWebKit/537.36 (KHTML, like Gecko) Chrome/125.0.0.0 Safari/537.36" etag="GKEyMgpmFqraBN1Q1Jkg" version="24.5.5" type="github" pages="4">
  <diagram id="l5tVfilbcxxOehL3DPyS" name="Vertical">
    <mxGraphModel dx="1905" dy="149" grid="1" gridSize="10" guides="1" tooltips="1" connect="1" arrows="1" fold="1" page="0" pageScale="1" pageWidth="827" pageHeight="1169" background="#000000" math="0" shadow="0">
      <root>
        <mxCell id="gH_hcZERuxUluIT7-EIQ-0" />
        <mxCell id="gH_hcZERuxUluIT7-EIQ-1" parent="gH_hcZERuxUluIT7-EIQ-0" />
        <mxCell id="95gSrrQeCEFWh76e7k1L-74" value="" style="endArrow=none;html=1;strokeWidth=3;strokeColor=#CCCCCC;labelBackgroundColor=none;fontSize=16;rounded=0;dashed=1;exitX=0.5;exitY=1;exitDx=0;exitDy=0;" edge="1" parent="gH_hcZERuxUluIT7-EIQ-1" source="FTSm8BguTjZHQq8JtcMR-2">
          <mxGeometry relative="1" as="geometry">
            <mxPoint x="1595" y="1059.64" as="sourcePoint" />
            <mxPoint x="580" y="1120" as="targetPoint" />
          </mxGeometry>
        </mxCell>
        <mxCell id="95gSrrQeCEFWh76e7k1L-16" value="&lt;span id=&quot;docs-internal-guid-d6be6054-7fff-7a1b-a8b6-10452b927d94&quot; style=&quot;font-weight: normal;&quot;&gt;&lt;span style=&quot;font-family: Arial, sans-serif; background-color: transparent; font-variant-numeric: normal; font-variant-east-asian: normal; font-variant-alternates: normal; font-variant-position: normal; vertical-align: baseline; white-space-collapse: preserve;&quot;&gt;&lt;font style=&quot;font-size: 11px;&quot;&gt;Ethics guidelines for trustworthy AI&lt;/font&gt;&lt;/span&gt;&lt;/span&gt;" style="shape=rect;rounded=1;html=1;shadow=0;strokeColor=none;fillColor=#10739E;arcSize=30;fontSize=10;spacingLeft=5;fontStyle=1;fontColor=#FFFFFF;align=center;labelPosition=center;verticalLabelPosition=middle;verticalAlign=middle;whiteSpace=wrap;spacing=3;spacingRight=60;" vertex="1" parent="gH_hcZERuxUluIT7-EIQ-1">
          <mxGeometry x="-20" y="1280.5" width="140" height="80" as="geometry" />
        </mxCell>
        <mxCell id="95gSrrQeCEFWh76e7k1L-12" value="&lt;span id=&quot;docs-internal-guid-d6be6054-7fff-7a1b-a8b6-10452b927d94&quot; style=&quot;font-weight: normal;&quot;&gt;&lt;span style=&quot;font-family: Arial, sans-serif; background-color: transparent; font-variant-numeric: normal; font-variant-east-asian: normal; font-variant-alternates: normal; font-variant-position: normal; vertical-align: baseline; white-space-collapse: preserve;&quot;&gt;&lt;font style=&quot;font-size: 11px;&quot;&gt;First draft of guidelines&lt;/font&gt;&lt;/span&gt;&lt;/span&gt;" style="shape=rect;rounded=1;html=1;shadow=0;strokeColor=none;fillColor=#10739E;arcSize=30;fontSize=10;spacingLeft=5;fontStyle=1;fontColor=#FFFFFF;align=center;labelPosition=center;verticalLabelPosition=middle;verticalAlign=middle;whiteSpace=wrap;spacing=3;spacingRight=60;" vertex="1" parent="gH_hcZERuxUluIT7-EIQ-1">
          <mxGeometry x="-31" y="960" width="120" height="80" as="geometry" />
        </mxCell>
        <mxCell id="95gSrrQeCEFWh76e7k1L-8" value="&lt;span style=&quot;font-weight:normal;&quot; id=&quot;docs-internal-guid-00c58ed5-7fff-5b8e-03cd-491ae91c646b&quot;&gt;&lt;span style=&quot;font-family: Arial, sans-serif; background-color: transparent; font-variant-numeric: normal; font-variant-east-asian: normal; font-variant-alternates: normal; font-variant-position: normal; vertical-align: baseline; white-space-collapse: preserve;&quot;&gt;&lt;font style=&quot;font-size: 11px;&quot;&gt;Ministerial declaration on cooperation on Artificial Intelligence, signed by all EU Member States&lt;/font&gt;&lt;/span&gt;&lt;/span&gt;" style="shape=rect;rounded=1;html=1;shadow=0;strokeColor=none;fillColor=#006600;arcSize=30;fontSize=10;spacingLeft=5;fontStyle=1;fontColor=#FFFFFF;align=center;labelPosition=center;verticalLabelPosition=middle;verticalAlign=middle;whiteSpace=wrap;spacing=3;spacingRight=55;" vertex="1" parent="gH_hcZERuxUluIT7-EIQ-1">
          <mxGeometry x="-155" y="1163" width="190" height="80" as="geometry" />
        </mxCell>
        <mxCell id="95gSrrQeCEFWh76e7k1L-2" value="&lt;span id=&quot;docs-internal-guid-d6be6054-7fff-7a1b-a8b6-10452b927d94&quot; style=&quot;font-weight: normal;&quot;&gt;&lt;span style=&quot;font-family: Arial, sans-serif; background-color: transparent; font-variant-numeric: normal; font-variant-east-asian: normal; font-variant-alternates: normal; font-variant-position: normal; vertical-align: baseline; white-space-collapse: preserve;&quot;&gt;&lt;font style=&quot;font-size: 11px;&quot;&gt;European Parliament called on the Commission to assess the impact of AI and to draft an EU framework for AI&lt;/font&gt;&lt;/span&gt;&lt;/span&gt;" style="shape=rect;rounded=1;html=1;shadow=0;strokeColor=none;fillColor=#994C00;arcSize=30;fontSize=10;spacingLeft=60;fontStyle=1;fontColor=#FFFFFF;align=center;labelPosition=center;verticalLabelPosition=middle;verticalAlign=middle;whiteSpace=wrap;spacing=3;spacingRight=5;" vertex="1" parent="gH_hcZERuxUluIT7-EIQ-1">
          <mxGeometry x="-100" y="840" width="220" height="80" as="geometry" />
        </mxCell>
        <mxCell id="FTSm8BguTjZHQq8JtcMR-0" value="" style="endArrow=none;html=1;strokeWidth=3;strokeColor=#CCCCCC;labelBackgroundColor=none;fontSize=16;rounded=0;exitX=0.511;exitY=0.976;exitDx=0;exitDy=0;exitPerimeter=0;" parent="gH_hcZERuxUluIT7-EIQ-1" source="95gSrrQeCEFWh76e7k1L-50" edge="1">
          <mxGeometry relative="1" as="geometry">
            <mxPoint x="580" y="1120" as="sourcePoint" />
            <mxPoint x="-123.99999999998181" y="1120" as="targetPoint" />
          </mxGeometry>
        </mxCell>
        <mxCell id="FTSm8BguTjZHQq8JtcMR-1" value="" style="ellipse;whiteSpace=wrap;html=1;aspect=fixed;shadow=0;fillColor=none;strokeColor=#333333;fontSize=16;align=center;strokeWidth=2;direction=south;" parent="gH_hcZERuxUluIT7-EIQ-1" vertex="1">
          <mxGeometry x="-126" y="1114" width="12" height="12" as="geometry" />
        </mxCell>
        <mxCell id="FTSm8BguTjZHQq8JtcMR-2" value="" style="ellipse;whiteSpace=wrap;html=1;aspect=fixed;shadow=0;fillColor=none;strokeColor=#333333;fontSize=16;align=center;strokeWidth=2;direction=south;" parent="gH_hcZERuxUluIT7-EIQ-1" vertex="1">
          <mxGeometry x="949" y="1114" width="12" height="12" as="geometry" />
        </mxCell>
        <mxCell id="FTSm8BguTjZHQq8JtcMR-3" value="" style="verticalLabelPosition=middle;verticalAlign=middle;html=1;shape=mxgraph.infographic.circularCallout2;dy=15;strokeColor=#10739E;labelPosition=center;align=center;fontColor=#10739E;fontStyle=1;fontSize=24;shadow=0;direction=east;fillColor=#000000;rotation=-180;" parent="gH_hcZERuxUluIT7-EIQ-1" vertex="1">
          <mxGeometry x="60" y="1114" width="80" height="246.5" as="geometry" />
        </mxCell>
        <mxCell id="FTSm8BguTjZHQq8JtcMR-4" value="" style="verticalLabelPosition=middle;verticalAlign=middle;html=1;shape=mxgraph.infographic.circularCallout2;dy=15;strokeColor=#10739E;labelPosition=center;align=center;fontColor=#F2931E;fontStyle=1;fontSize=24;shadow=0;direction=east;flipH=1;fillColor=#000000;" parent="gH_hcZERuxUluIT7-EIQ-1" vertex="1">
          <mxGeometry x="29" y="960" width="80" height="166" as="geometry" />
        </mxCell>
        <mxCell id="FTSm8BguTjZHQq8JtcMR-5" value="" style="verticalLabelPosition=middle;verticalAlign=middle;html=1;shape=mxgraph.infographic.circularCallout2;dy=15;strokeColor=#994C00;labelPosition=center;align=center;fontColor=#10739E;fontStyle=1;fontSize=24;shadow=0;direction=east;fillColor=#000000;gradientColor=default;" parent="gH_hcZERuxUluIT7-EIQ-1" vertex="1">
          <mxGeometry x="-120" y="840" width="80" height="286" as="geometry" />
        </mxCell>
        <mxCell id="FTSm8BguTjZHQq8JtcMR-7" value="" style="verticalLabelPosition=middle;verticalAlign=middle;html=1;shape=mxgraph.infographic.circularCallout2;dy=15;strokeColor=#006600;labelPosition=center;align=center;fontColor=#10739E;fontStyle=1;fontSize=24;shadow=0;direction=east;fillColor=#000000;rotation=-180;" parent="gH_hcZERuxUluIT7-EIQ-1" vertex="1">
          <mxGeometry x="-20" y="1114" width="80" height="129" as="geometry" />
        </mxCell>
        <mxCell id="95gSrrQeCEFWh76e7k1L-1" style="edgeStyle=orthogonalEdgeStyle;rounded=0;orthogonalLoop=1;jettySize=auto;html=1;exitX=0.5;exitY=1;exitDx=0;exitDy=0;exitPerimeter=0;" edge="1" parent="gH_hcZERuxUluIT7-EIQ-1" source="FTSm8BguTjZHQq8JtcMR-5" target="FTSm8BguTjZHQq8JtcMR-5">
          <mxGeometry relative="1" as="geometry" />
        </mxCell>
        <mxCell id="95gSrrQeCEFWh76e7k1L-5" value="&lt;p style=&quot;line-height: 120%; font-size: 12px;&quot;&gt;&lt;font style=&quot;font-size: 12px;&quot; color=&quot;#ffffff&quot;&gt;February&lt;br&gt;2017&lt;/font&gt;&lt;/p&gt;" style="text;strokeColor=none;fillColor=none;html=1;fontSize=24;fontStyle=1;verticalAlign=middle;align=center;" vertex="1" parent="gH_hcZERuxUluIT7-EIQ-1">
          <mxGeometry x="-109" y="852.5" width="58" height="55" as="geometry" />
        </mxCell>
        <mxCell id="95gSrrQeCEFWh76e7k1L-6" value="&lt;p style=&quot;line-height: 120%; font-size: 12px;&quot;&gt;&lt;font style=&quot;font-size: 12px;&quot; color=&quot;#ffffff&quot;&gt;April&lt;br&gt;2018&lt;/font&gt;&lt;/p&gt;" style="text;strokeColor=none;fillColor=none;html=1;fontSize=24;fontStyle=1;verticalAlign=middle;align=center;" vertex="1" parent="gH_hcZERuxUluIT7-EIQ-1">
          <mxGeometry x="-9" y="1175.5" width="58" height="55" as="geometry" />
        </mxCell>
        <mxCell id="95gSrrQeCEFWh76e7k1L-10" value="50 pt" style="text;whiteSpace=wrap;spacingRight=50;" vertex="1" parent="gH_hcZERuxUluIT7-EIQ-1">
          <mxGeometry x="-590" y="820" width="60" height="40" as="geometry" />
        </mxCell>
        <mxCell id="95gSrrQeCEFWh76e7k1L-11" value="&lt;p style=&quot;line-height: 120%; font-size: 12px;&quot;&gt;&lt;font style=&quot;font-size: 12px;&quot; color=&quot;#ffffff&quot;&gt;December&lt;br&gt;2018&lt;/font&gt;&lt;/p&gt;" style="text;strokeColor=none;fillColor=none;html=1;fontSize=24;fontStyle=1;verticalAlign=middle;align=center;" vertex="1" parent="gH_hcZERuxUluIT7-EIQ-1">
          <mxGeometry x="40" y="973" width="58" height="55" as="geometry" />
        </mxCell>
        <mxCell id="95gSrrQeCEFWh76e7k1L-14" value="&lt;p style=&quot;line-height: 120%; font-size: 12px;&quot;&gt;&lt;font style=&quot;font-size: 12px;&quot; color=&quot;#ffffff&quot;&gt;April&lt;br&gt;2019&lt;/font&gt;&lt;/p&gt;" style="text;strokeColor=none;fillColor=none;html=1;fontSize=24;fontStyle=1;verticalAlign=middle;align=center;" vertex="1" parent="gH_hcZERuxUluIT7-EIQ-1">
          <mxGeometry x="71" y="1293" width="58" height="55" as="geometry" />
        </mxCell>
        <mxCell id="95gSrrQeCEFWh76e7k1L-19" value="&lt;span id=&quot;docs-internal-guid-d6be6054-7fff-7a1b-a8b6-10452b927d94&quot; style=&quot;font-weight: normal;&quot;&gt;&lt;span style=&quot;font-family: Arial, sans-serif; background-color: transparent; font-variant-numeric: normal; font-variant-east-asian: normal; font-variant-alternates: normal; font-variant-position: normal; vertical-align: baseline; white-space-collapse: preserve;&quot;&gt;&lt;font style=&quot;font-size: 11px;&quot;&gt;White Paper on Artificial Intelligence&lt;/font&gt;&lt;/span&gt;&lt;/span&gt;" style="shape=rect;rounded=1;html=1;shadow=0;strokeColor=none;fillColor=#10739E;arcSize=30;fontSize=10;spacingLeft=60;fontStyle=1;fontColor=#FFFFFF;align=center;labelPosition=center;verticalLabelPosition=middle;verticalAlign=middle;whiteSpace=wrap;spacing=3;spacingRight=5;" vertex="1" parent="gH_hcZERuxUluIT7-EIQ-1">
          <mxGeometry x="140" y="880" width="130" height="80" as="geometry" />
        </mxCell>
        <mxCell id="95gSrrQeCEFWh76e7k1L-20" value="" style="verticalLabelPosition=middle;verticalAlign=middle;html=1;shape=mxgraph.infographic.circularCallout2;dy=15;strokeColor=#10739E;labelPosition=center;align=center;fontColor=#10739E;fontStyle=1;fontSize=24;shadow=0;direction=east;fillColor=#000000;gradientColor=default;" vertex="1" parent="gH_hcZERuxUluIT7-EIQ-1">
          <mxGeometry x="120" y="880" width="80" height="245" as="geometry" />
        </mxCell>
        <mxCell id="95gSrrQeCEFWh76e7k1L-21" value="&lt;p style=&quot;line-height: 120%; font-size: 12px;&quot;&gt;&lt;font style=&quot;font-size: 12px;&quot; color=&quot;#ffffff&quot;&gt;February&lt;br&gt;2020&lt;/font&gt;&lt;/p&gt;" style="text;strokeColor=none;fillColor=none;html=1;fontSize=24;fontStyle=1;verticalAlign=middle;align=center;" vertex="1" parent="gH_hcZERuxUluIT7-EIQ-1">
          <mxGeometry x="131" y="892.5" width="58" height="55" as="geometry" />
        </mxCell>
        <mxCell id="95gSrrQeCEFWh76e7k1L-23" value="&lt;span id=&quot;docs-internal-guid-d6be6054-7fff-7a1b-a8b6-10452b927d94&quot; style=&quot;font-weight: normal;&quot;&gt;&lt;span style=&quot;font-family: Arial, sans-serif; background-color: transparent; font-variant-numeric: normal; font-variant-east-asian: normal; font-variant-alternates: normal; font-variant-position: normal; vertical-align: baseline; white-space-collapse: preserve;&quot;&gt;&lt;font style=&quot;font-size: 11px;&quot;&gt;Presidency issues conclusions on ensuring respect for fundamental rights&lt;/font&gt;&lt;/span&gt;&lt;/span&gt;" style="shape=rect;rounded=1;html=1;shadow=0;strokeColor=none;fillColor=#994C00;arcSize=30;fontSize=10;spacingLeft=60;fontStyle=1;fontColor=#FFFFFF;align=center;labelPosition=center;verticalLabelPosition=middle;verticalAlign=middle;whiteSpace=wrap;spacing=3;spacingRight=5;" vertex="1" parent="gH_hcZERuxUluIT7-EIQ-1">
          <mxGeometry x="200" y="1325" width="170" height="80" as="geometry" />
        </mxCell>
        <mxCell id="95gSrrQeCEFWh76e7k1L-24" value="" style="verticalLabelPosition=middle;verticalAlign=middle;html=1;shape=mxgraph.infographic.circularCallout2;dy=15;strokeColor=#994C00;labelPosition=center;align=center;fontColor=#10739E;fontStyle=1;fontSize=24;shadow=0;direction=east;fillColor=#000000;gradientColor=default;rotation=-180;" vertex="1" parent="gH_hcZERuxUluIT7-EIQ-1">
          <mxGeometry x="180" y="1114" width="80" height="291" as="geometry" />
        </mxCell>
        <mxCell id="95gSrrQeCEFWh76e7k1L-25" value="&lt;p style=&quot;line-height: 120%; font-size: 12px;&quot;&gt;&lt;font color=&quot;#ffffff&quot;&gt;October&lt;br&gt;2020&lt;/font&gt;&lt;/p&gt;" style="text;strokeColor=none;fillColor=none;html=1;fontSize=24;fontStyle=1;verticalAlign=middle;align=center;" vertex="1" parent="gH_hcZERuxUluIT7-EIQ-1">
          <mxGeometry x="191" y="1337" width="58" height="55" as="geometry" />
        </mxCell>
        <mxCell id="95gSrrQeCEFWh76e7k1L-26" value="&lt;span style=&quot;font-weight:normal;&quot; id=&quot;docs-internal-guid-00c58ed5-7fff-5b8e-03cd-491ae91c646b&quot;&gt;&lt;span style=&quot;font-family: Arial, sans-serif; background-color: transparent; font-variant-numeric: normal; font-variant-east-asian: normal; font-variant-alternates: normal; font-variant-position: normal; vertical-align: baseline; white-space-collapse: preserve;&quot;&gt;&lt;font style=&quot;font-size: 11px;&quot;&gt;European Commission proposed the first EU regulatory framework for AI&lt;/font&gt;&lt;/span&gt;&lt;/span&gt;" style="shape=rect;rounded=1;html=1;shadow=0;strokeColor=none;fillColor=#006600;arcSize=30;fontSize=10;spacingLeft=60;fontStyle=1;fontColor=#FFFFFF;align=center;labelPosition=center;verticalLabelPosition=middle;verticalAlign=middle;whiteSpace=wrap;spacing=3;spacingRight=5;" vertex="1" parent="gH_hcZERuxUluIT7-EIQ-1">
          <mxGeometry x="240" y="1000" width="180" height="80" as="geometry" />
        </mxCell>
        <mxCell id="95gSrrQeCEFWh76e7k1L-27" value="" style="verticalLabelPosition=middle;verticalAlign=middle;html=1;shape=mxgraph.infographic.circularCallout2;dy=15;strokeColor=#006600;labelPosition=center;align=center;fontColor=#10739E;fontStyle=1;fontSize=24;shadow=0;direction=east;fillColor=#000000;rotation=0;" vertex="1" parent="gH_hcZERuxUluIT7-EIQ-1">
          <mxGeometry x="220" y="1000" width="80" height="125" as="geometry" />
        </mxCell>
        <mxCell id="95gSrrQeCEFWh76e7k1L-28" value="&lt;p style=&quot;line-height: 120%; font-size: 12px;&quot;&gt;&lt;font style=&quot;font-size: 12px;&quot; color=&quot;#ffffff&quot;&gt;April&lt;br&gt;2021&lt;/font&gt;&lt;/p&gt;" style="text;strokeColor=none;fillColor=none;html=1;fontSize=24;fontStyle=1;verticalAlign=middle;align=center;" vertex="1" parent="gH_hcZERuxUluIT7-EIQ-1">
          <mxGeometry x="231" y="1012.5" width="58" height="55" as="geometry" />
        </mxCell>
        <mxCell id="95gSrrQeCEFWh76e7k1L-30" value="&lt;span id=&quot;docs-internal-guid-d6be6054-7fff-7a1b-a8b6-10452b927d94&quot; style=&quot;font-weight: normal;&quot;&gt;&lt;span style=&quot;font-family: Arial, sans-serif; background-color: transparent; font-variant-numeric: normal; font-variant-east-asian: normal; font-variant-alternates: normal; font-variant-position: normal; vertical-align: baseline; white-space-collapse: preserve;&quot;&gt;&lt;font style=&quot;font-size: 11px;&quot;&gt;EU Council agreement secures financing of high performance computing&lt;/font&gt;&lt;/span&gt;&lt;/span&gt;" style="shape=rect;rounded=1;html=1;shadow=0;strokeColor=none;fillColor=#6666FF;arcSize=30;fontSize=10;spacingLeft=60;fontStyle=1;fontColor=#FFFFFF;align=center;labelPosition=center;verticalLabelPosition=middle;verticalAlign=middle;whiteSpace=wrap;spacing=3;spacingRight=5;" vertex="1" parent="gH_hcZERuxUluIT7-EIQ-1">
          <mxGeometry x="249" y="1230.5" width="179" height="80" as="geometry" />
        </mxCell>
        <mxCell id="95gSrrQeCEFWh76e7k1L-31" value="" style="verticalLabelPosition=middle;verticalAlign=middle;html=1;shape=mxgraph.infographic.circularCallout2;dy=15;strokeColor=#6666FF;labelPosition=center;align=center;fontColor=#6666FF;fontStyle=1;fontSize=24;shadow=0;direction=east;fillColor=#000000;gradientColor=default;rotation=-180;" vertex="1" parent="gH_hcZERuxUluIT7-EIQ-1">
          <mxGeometry x="232" y="1113" width="80" height="197" as="geometry" />
        </mxCell>
        <mxCell id="95gSrrQeCEFWh76e7k1L-32" value="&lt;p style=&quot;line-height: 120%; font-size: 12px;&quot;&gt;&lt;font color=&quot;#ffffff&quot;&gt;May&lt;br&gt;2021&lt;/font&gt;&lt;/p&gt;" style="text;strokeColor=none;fillColor=none;html=1;fontSize=24;fontStyle=1;verticalAlign=middle;align=center;" vertex="1" parent="gH_hcZERuxUluIT7-EIQ-1">
          <mxGeometry x="240" y="1242.5" width="58" height="55" as="geometry" />
        </mxCell>
        <mxCell id="95gSrrQeCEFWh76e7k1L-33" value="&lt;span id=&quot;docs-internal-guid-d6be6054-7fff-7a1b-a8b6-10452b927d94&quot; style=&quot;font-weight: normal;&quot;&gt;&lt;span style=&quot;font-family: Arial, sans-serif; background-color: transparent; font-variant-numeric: normal; font-variant-east-asian: normal; font-variant-alternates: normal; font-variant-position: normal; vertical-align: baseline; white-space-collapse: preserve;&quot;&gt;&lt;font style=&quot;font-size: 11px;&quot;&gt;Council calls for promoting safe AI that respects fundamental rights&lt;/font&gt;&lt;/span&gt;&lt;/span&gt;" style="shape=rect;rounded=1;html=1;shadow=0;strokeColor=none;fillColor=#994C00;arcSize=30;fontSize=10;spacingLeft=60;fontStyle=1;fontColor=#FFFFFF;align=center;labelPosition=center;verticalLabelPosition=middle;verticalAlign=middle;whiteSpace=wrap;spacing=3;spacingRight=5;" vertex="1" parent="gH_hcZERuxUluIT7-EIQ-1">
          <mxGeometry x="368" y="1137" width="162" height="80" as="geometry" />
        </mxCell>
        <mxCell id="95gSrrQeCEFWh76e7k1L-34" value="" style="verticalLabelPosition=middle;verticalAlign=middle;html=1;shape=mxgraph.infographic.circularCallout2;dy=15;strokeColor=#994C00;labelPosition=center;align=center;fontColor=#10739E;fontStyle=1;fontSize=24;shadow=0;direction=east;fillColor=#000000;gradientColor=default;rotation=-180;" vertex="1" parent="gH_hcZERuxUluIT7-EIQ-1">
          <mxGeometry x="348" y="1113" width="80" height="104" as="geometry" />
        </mxCell>
        <mxCell id="95gSrrQeCEFWh76e7k1L-35" value="&lt;p style=&quot;line-height: 120%; font-size: 12px;&quot;&gt;&lt;font color=&quot;#ffffff&quot;&gt;December&lt;br&gt;2022&lt;/font&gt;&lt;/p&gt;" style="text;strokeColor=none;fillColor=none;html=1;fontSize=24;fontStyle=1;verticalAlign=middle;align=center;" vertex="1" parent="gH_hcZERuxUluIT7-EIQ-1">
          <mxGeometry x="359" y="1149.5" width="58" height="55" as="geometry" />
        </mxCell>
        <mxCell id="95gSrrQeCEFWh76e7k1L-36" value="&lt;span style=&quot;font-weight:normal;&quot; id=&quot;docs-internal-guid-00c58ed5-7fff-5b8e-03cd-491ae91c646b&quot;&gt;&lt;span style=&quot;font-family: Arial, sans-serif; background-color: transparent; font-variant-numeric: normal; font-variant-east-asian: normal; font-variant-alternates: normal; font-variant-position: normal; vertical-align: baseline; white-space-collapse: preserve;&quot;&gt;&lt;font style=&quot;font-size: 11px;&quot;&gt;Council and Parliament strike a deal on the first rules for AI in the world&lt;/font&gt;&lt;/span&gt;&lt;/span&gt;" style="shape=rect;rounded=1;html=1;shadow=0;strokeColor=none;fillColor=#006600;arcSize=30;fontSize=10;spacingLeft=0;fontStyle=1;fontColor=#FFFFFF;align=center;labelPosition=center;verticalLabelPosition=middle;verticalAlign=middle;whiteSpace=wrap;spacing=3;spacingRight=60;" vertex="1" parent="gH_hcZERuxUluIT7-EIQ-1">
          <mxGeometry x="300" y="880" width="190" height="80" as="geometry" />
        </mxCell>
        <mxCell id="95gSrrQeCEFWh76e7k1L-37" value="" style="verticalLabelPosition=middle;verticalAlign=middle;html=1;shape=mxgraph.infographic.circularCallout2;dy=15;strokeColor=#006600;labelPosition=center;align=center;fontColor=#10739E;fontStyle=1;fontSize=24;shadow=0;direction=east;fillColor=#000000;rotation=0;" vertex="1" parent="gH_hcZERuxUluIT7-EIQ-1">
          <mxGeometry x="428" y="880" width="80" height="246" as="geometry" />
        </mxCell>
        <mxCell id="95gSrrQeCEFWh76e7k1L-38" value="&lt;p style=&quot;line-height: 120%; font-size: 12px;&quot;&gt;&lt;font color=&quot;#ffffff&quot;&gt;December&lt;br&gt;2023&lt;/font&gt;&lt;/p&gt;" style="text;strokeColor=none;fillColor=none;html=1;fontSize=24;fontStyle=1;verticalAlign=middle;align=center;" vertex="1" parent="gH_hcZERuxUluIT7-EIQ-1">
          <mxGeometry x="439" y="892.5" width="58" height="55" as="geometry" />
        </mxCell>
        <mxCell id="95gSrrQeCEFWh76e7k1L-39" value="&lt;span style=&quot;font-weight:normal;&quot; id=&quot;docs-internal-guid-00c58ed5-7fff-5b8e-03cd-491ae91c646b&quot;&gt;&lt;span style=&quot;font-family: Arial, sans-serif; background-color: transparent; font-variant-numeric: normal; font-variant-east-asian: normal; font-variant-alternates: normal; font-variant-position: normal; vertical-align: baseline; white-space-collapse: preserve;&quot;&gt;&lt;font style=&quot;font-size: 11px;&quot;&gt;The European Parliament adopted the Artificial Intelligence Act&lt;/font&gt;&lt;/span&gt;&lt;/span&gt;" style="shape=rect;rounded=1;html=1;shadow=0;strokeColor=none;fillColor=#006600;arcSize=30;fontSize=10;spacingLeft=60;fontStyle=1;fontColor=#FFFFFF;align=center;labelPosition=center;verticalLabelPosition=middle;verticalAlign=middle;whiteSpace=wrap;spacing=3;spacingRight=5;" vertex="1" parent="gH_hcZERuxUluIT7-EIQ-1">
          <mxGeometry x="499" y="800" width="180" height="80" as="geometry" />
        </mxCell>
        <mxCell id="95gSrrQeCEFWh76e7k1L-40" value="" style="verticalLabelPosition=middle;verticalAlign=middle;html=1;shape=mxgraph.infographic.circularCallout2;dy=15;strokeColor=#006600;labelPosition=center;align=center;fontColor=#10739E;fontStyle=1;fontSize=24;shadow=0;direction=east;fillColor=#000000;rotation=0;" vertex="1" parent="gH_hcZERuxUluIT7-EIQ-1">
          <mxGeometry x="480" y="800" width="80" height="325" as="geometry" />
        </mxCell>
        <mxCell id="95gSrrQeCEFWh76e7k1L-41" value="&lt;p style=&quot;line-height: 120%; font-size: 12px;&quot;&gt;&lt;font color=&quot;#ffffff&quot;&gt;March&lt;br&gt;2024&lt;/font&gt;&lt;/p&gt;" style="text;strokeColor=none;fillColor=none;html=1;fontSize=24;fontStyle=1;verticalAlign=middle;align=center;" vertex="1" parent="gH_hcZERuxUluIT7-EIQ-1">
          <mxGeometry x="490" y="812.5" width="58" height="55" as="geometry" />
        </mxCell>
        <mxCell id="95gSrrQeCEFWh76e7k1L-42" value="&lt;span style=&quot;font-weight:normal;&quot; id=&quot;docs-internal-guid-00c58ed5-7fff-5b8e-03cd-491ae91c646b&quot;&gt;&lt;span style=&quot;font-family: Arial, sans-serif; background-color: transparent; font-variant-numeric: normal; font-variant-east-asian: normal; font-variant-alternates: normal; font-variant-position: normal; vertical-align: baseline; white-space-collapse: preserve;&quot;&gt;&lt;font style=&quot;font-size: 11px;&quot;&gt;EU Council approved the Artificial Intelligence Act&lt;/font&gt;&lt;/span&gt;&lt;/span&gt;" style="shape=rect;rounded=1;html=1;shadow=0;strokeColor=none;fillColor=#006600;arcSize=30;fontSize=10;spacingLeft=5;fontStyle=1;fontColor=#FFFFFF;align=center;labelPosition=center;verticalLabelPosition=middle;verticalAlign=middle;whiteSpace=wrap;spacing=3;spacingRight=55;" vertex="1" parent="gH_hcZERuxUluIT7-EIQ-1">
          <mxGeometry x="400" y="1327" width="158" height="80" as="geometry" />
        </mxCell>
        <mxCell id="95gSrrQeCEFWh76e7k1L-43" value="" style="verticalLabelPosition=middle;verticalAlign=middle;html=1;shape=mxgraph.infographic.circularCallout2;dy=15;strokeColor=#006600;labelPosition=center;align=center;fontColor=#10739E;fontStyle=1;fontSize=24;shadow=0;direction=east;fillColor=#000000;rotation=-180;" vertex="1" parent="gH_hcZERuxUluIT7-EIQ-1">
          <mxGeometry x="503" y="1114" width="80" height="293" as="geometry" />
        </mxCell>
        <mxCell id="95gSrrQeCEFWh76e7k1L-44" value="&lt;p style=&quot;line-height: 120%; font-size: 12px;&quot;&gt;&lt;font color=&quot;#ffffff&quot;&gt;May&lt;br&gt;2024&lt;/font&gt;&lt;/p&gt;" style="text;strokeColor=none;fillColor=none;html=1;fontSize=24;fontStyle=1;verticalAlign=middle;align=center;" vertex="1" parent="gH_hcZERuxUluIT7-EIQ-1">
          <mxGeometry x="514" y="1339.5" width="58" height="55" as="geometry" />
        </mxCell>
        <mxCell id="95gSrrQeCEFWh76e7k1L-49" value="&lt;span id=&quot;docs-internal-guid-d6be6054-7fff-7a1b-a8b6-10452b927d94&quot; style=&quot;font-weight: normal;&quot;&gt;&lt;span style=&quot;font-family: Arial, sans-serif; background-color: transparent; font-variant-numeric: normal; font-variant-east-asian: normal; font-variant-alternates: normal; font-variant-position: normal; vertical-align: baseline; white-space-collapse: preserve;&quot;&gt;&lt;font style=&quot;font-size: 11px;&quot;&gt;EU Council adopts regulation on use of supercomputing in AI development&lt;/font&gt;&lt;/span&gt;&lt;/span&gt;" style="shape=rect;rounded=1;html=1;shadow=0;strokeColor=none;fillColor=#6666FF;arcSize=30;fontSize=10;spacingLeft=60;fontStyle=1;fontColor=#FFFFFF;align=center;labelPosition=center;verticalLabelPosition=middle;verticalAlign=middle;whiteSpace=wrap;spacing=3;spacingRight=5;" vertex="1" parent="gH_hcZERuxUluIT7-EIQ-1">
          <mxGeometry x="549" y="919.5" width="161" height="80" as="geometry" />
        </mxCell>
        <mxCell id="95gSrrQeCEFWh76e7k1L-50" value="" style="verticalLabelPosition=middle;verticalAlign=middle;html=1;shape=mxgraph.infographic.circularCallout2;dy=15;strokeColor=#6666FF;labelPosition=center;align=center;fontColor=#6666FF;fontStyle=1;fontSize=24;shadow=0;direction=east;fillColor=#000000;gradientColor=default;rotation=0;" vertex="1" parent="gH_hcZERuxUluIT7-EIQ-1">
          <mxGeometry x="528" y="920" width="80" height="205" as="geometry" />
        </mxCell>
        <mxCell id="95gSrrQeCEFWh76e7k1L-51" value="&lt;p style=&quot;line-height: 120%; font-size: 12px;&quot;&gt;&lt;font color=&quot;#ffffff&quot;&gt;June&lt;br&gt;2024&lt;/font&gt;&lt;/p&gt;" style="text;strokeColor=none;fillColor=none;html=1;fontSize=24;fontStyle=1;verticalAlign=middle;align=center;" vertex="1" parent="gH_hcZERuxUluIT7-EIQ-1">
          <mxGeometry x="539" y="931.5" width="58" height="55" as="geometry" />
        </mxCell>
        <mxCell id="95gSrrQeCEFWh76e7k1L-53" value="Timeline of EU&#39;s Artificial Intelligence Act" style="text;strokeColor=none;fillColor=none;html=1;fontSize=24;fontStyle=1;verticalAlign=middle;align=center;fontColor=#FFFFFF;" vertex="1" parent="gH_hcZERuxUluIT7-EIQ-1">
          <mxGeometry x="219" y="730" width="100" height="40" as="geometry" />
        </mxCell>
        <mxCell id="95gSrrQeCEFWh76e7k1L-54" value="&lt;span id=&quot;docs-internal-guid-d6be6054-7fff-7a1b-a8b6-10452b927d94&quot; style=&quot;font-weight: normal;&quot;&gt;&lt;span style=&quot;font-family: Arial, sans-serif; background-color: transparent; font-variant-numeric: normal; font-variant-east-asian: normal; font-variant-alternates: normal; font-variant-position: normal; vertical-align: baseline; white-space-collapse: preserve;&quot;&gt;&lt;font style=&quot;font-size: 11px;&quot;&gt;Ban on AI systems with unacceptable risk&lt;/font&gt;&lt;/span&gt;&lt;/span&gt;" style="shape=rect;rounded=1;html=1;shadow=0;strokeColor=none;fillColor=#FF3333;arcSize=30;fontSize=10;spacingLeft=60;fontStyle=1;fontColor=#FFFFFF;align=center;labelPosition=center;verticalLabelPosition=middle;verticalAlign=middle;whiteSpace=wrap;spacing=3;spacingRight=5;" vertex="1" parent="gH_hcZERuxUluIT7-EIQ-1">
          <mxGeometry x="580" y="1242" width="130" height="80" as="geometry" />
        </mxCell>
        <mxCell id="95gSrrQeCEFWh76e7k1L-55" value="" style="verticalLabelPosition=middle;verticalAlign=middle;html=1;shape=mxgraph.infographic.circularCallout2;dy=15;strokeColor=#FF3333;labelPosition=center;align=center;fontColor=#10739E;fontStyle=1;fontSize=24;shadow=0;direction=east;fillColor=#000000;gradientColor=default;rotation=-180;" vertex="1" parent="gH_hcZERuxUluIT7-EIQ-1">
          <mxGeometry x="560" y="1114" width="80" height="208" as="geometry" />
        </mxCell>
        <mxCell id="95gSrrQeCEFWh76e7k1L-56" value="&lt;p style=&quot;line-height: 120%; font-size: 10px;&quot;&gt;&lt;font style=&quot;font-size: 10px;&quot; color=&quot;#ffffff&quot;&gt;&lt;span style=&quot;&quot;&gt;6 months&lt;br&gt;&lt;/span&gt;&lt;/font&gt;&lt;span style=&quot;background-color: initial;&quot;&gt;&lt;font style=&quot;font-size: 10px;&quot; color=&quot;#ffffff&quot;&gt;after entry&lt;br&gt;into force&lt;/font&gt;&lt;/span&gt;&lt;br&gt;&lt;/p&gt;" style="text;strokeColor=none;fillColor=none;html=1;fontSize=24;fontStyle=1;verticalAlign=middle;align=center;" vertex="1" parent="gH_hcZERuxUluIT7-EIQ-1">
          <mxGeometry x="571" y="1254.5" width="58" height="55.5" as="geometry" />
        </mxCell>
        <mxCell id="95gSrrQeCEFWh76e7k1L-57" value="&lt;span id=&quot;docs-internal-guid-d6be6054-7fff-7a1b-a8b6-10452b927d94&quot; style=&quot;font-weight: normal;&quot;&gt;&lt;span style=&quot;font-family: Arial, sans-serif; background-color: transparent; font-variant-numeric: normal; font-variant-east-asian: normal; font-variant-alternates: normal; font-variant-position: normal; vertical-align: baseline; white-space-collapse: preserve;&quot;&gt;&lt;font style=&quot;font-size: 11px;&quot;&gt;Codes of conduct are applied&lt;/font&gt;&lt;/span&gt;&lt;/span&gt;" style="shape=rect;rounded=1;html=1;shadow=0;strokeColor=none;fillColor=#994C00;arcSize=30;fontSize=10;spacingLeft=60;fontStyle=1;fontColor=#FFFFFF;align=center;labelPosition=center;verticalLabelPosition=middle;verticalAlign=middle;whiteSpace=wrap;spacing=3;spacingRight=5;" vertex="1" parent="gH_hcZERuxUluIT7-EIQ-1">
          <mxGeometry x="659" y="1020" width="130" height="80" as="geometry" />
        </mxCell>
        <mxCell id="95gSrrQeCEFWh76e7k1L-58" value="" style="verticalLabelPosition=middle;verticalAlign=middle;html=1;shape=mxgraph.infographic.circularCallout2;dy=15;strokeColor=#994C00;labelPosition=center;align=center;fontColor=#10739E;fontStyle=1;fontSize=24;shadow=0;direction=east;fillColor=#000000;gradientColor=default;rotation=0;" vertex="1" parent="gH_hcZERuxUluIT7-EIQ-1">
          <mxGeometry x="638" y="1020" width="80" height="105" as="geometry" />
        </mxCell>
        <mxCell id="95gSrrQeCEFWh76e7k1L-59" value="&lt;p style=&quot;line-height: 120%; font-size: 10px;&quot;&gt;&lt;font style=&quot;font-size: 10px;&quot; color=&quot;#ffffff&quot;&gt;&lt;span style=&quot;&quot;&gt;9 months&lt;br&gt;&lt;/span&gt;&lt;/font&gt;&lt;span style=&quot;background-color: initial;&quot;&gt;&lt;font style=&quot;font-size: 10px;&quot; color=&quot;#ffffff&quot;&gt;after entry&lt;br&gt;into force&lt;/font&gt;&lt;/span&gt;&lt;br&gt;&lt;/p&gt;" style="text;strokeColor=none;fillColor=none;html=1;fontSize=24;fontStyle=1;verticalAlign=middle;align=center;" vertex="1" parent="gH_hcZERuxUluIT7-EIQ-1">
          <mxGeometry x="650" y="1032.5" width="58" height="55.5" as="geometry" />
        </mxCell>
        <mxCell id="95gSrrQeCEFWh76e7k1L-60" value="&lt;span id=&quot;docs-internal-guid-d6be6054-7fff-7a1b-a8b6-10452b927d94&quot; style=&quot;font-weight: normal;&quot;&gt;&lt;span style=&quot;font-family: Arial, sans-serif; background-color: transparent; font-variant-numeric: normal; font-variant-east-asian: normal; font-variant-alternates: normal; font-variant-position: normal; vertical-align: baseline; white-space-collapse: preserve;&quot;&gt;&lt;font style=&quot;font-size: 11px;&quot;&gt;Governance rules and obligations for General Purpose AI (GPAI) become applicable&lt;/font&gt;&lt;/span&gt;&lt;/span&gt;" style="shape=rect;rounded=1;html=1;shadow=0;strokeColor=none;fillColor=#994C00;arcSize=30;fontSize=10;spacingLeft=60;fontStyle=1;fontColor=#FFFFFF;align=center;labelPosition=center;verticalLabelPosition=middle;verticalAlign=middle;whiteSpace=wrap;spacing=3;spacingRight=5;" vertex="1" parent="gH_hcZERuxUluIT7-EIQ-1">
          <mxGeometry x="740" y="1280" width="180" height="80" as="geometry" />
        </mxCell>
        <mxCell id="95gSrrQeCEFWh76e7k1L-61" value="" style="verticalLabelPosition=middle;verticalAlign=middle;html=1;shape=mxgraph.infographic.circularCallout2;dy=15;strokeColor=#994C00;labelPosition=center;align=center;fontColor=#10739E;fontStyle=1;fontSize=24;shadow=0;direction=east;fillColor=#000000;gradientColor=default;rotation=-180;strokeWidth=1;" vertex="1" parent="gH_hcZERuxUluIT7-EIQ-1">
          <mxGeometry x="720" y="1113" width="80" height="247" as="geometry" />
        </mxCell>
        <mxCell id="95gSrrQeCEFWh76e7k1L-62" value="&lt;p style=&quot;line-height: 120%; font-size: 10px;&quot;&gt;&lt;font style=&quot;font-size: 10px;&quot; color=&quot;#ffffff&quot;&gt;&lt;span style=&quot;&quot;&gt;12 months&lt;br&gt;&lt;/span&gt;&lt;/font&gt;&lt;span style=&quot;background-color: initial;&quot;&gt;&lt;font style=&quot;font-size: 10px;&quot; color=&quot;#ffffff&quot;&gt;after entry&lt;br&gt;into force&lt;/font&gt;&lt;/span&gt;&lt;br&gt;&lt;/p&gt;" style="text;strokeColor=none;fillColor=none;html=1;fontSize=24;fontStyle=1;verticalAlign=middle;align=center;" vertex="1" parent="gH_hcZERuxUluIT7-EIQ-1">
          <mxGeometry x="731" y="1292.5" width="58" height="55.5" as="geometry" />
        </mxCell>
        <mxCell id="95gSrrQeCEFWh76e7k1L-63" value="&lt;span style=&quot;font-weight:normal;&quot; id=&quot;docs-internal-guid-00c58ed5-7fff-5b8e-03cd-491ae91c646b&quot;&gt;&lt;span style=&quot;font-family: Arial, sans-serif; background-color: transparent; font-variant-numeric: normal; font-variant-east-asian: normal; font-variant-alternates: normal; font-variant-position: normal; vertical-align: baseline; white-space-collapse: preserve;&quot;&gt;&lt;font style=&quot;font-size: 11px;&quot;&gt;Start of application of the EU AI Act for AI systems&lt;/font&gt;&lt;/span&gt;&lt;/span&gt;" style="shape=rect;rounded=1;html=1;shadow=0;strokeColor=none;fillColor=#006600;arcSize=30;fontSize=10;spacingLeft=60;fontStyle=1;fontColor=#FFFFFF;align=center;labelPosition=center;verticalLabelPosition=middle;verticalAlign=middle;whiteSpace=wrap;spacing=3;spacingRight=5;" vertex="1" parent="gH_hcZERuxUluIT7-EIQ-1">
          <mxGeometry x="819" y="920" width="141" height="80" as="geometry" />
        </mxCell>
        <mxCell id="95gSrrQeCEFWh76e7k1L-64" value="" style="verticalLabelPosition=middle;verticalAlign=middle;html=1;shape=mxgraph.infographic.circularCallout2;dy=15;strokeColor=#006600;labelPosition=center;align=center;fontColor=#10739E;fontStyle=1;fontSize=24;shadow=0;direction=east;fillColor=#000000;rotation=0;" vertex="1" parent="gH_hcZERuxUluIT7-EIQ-1">
          <mxGeometry x="800" y="920" width="80" height="206" as="geometry" />
        </mxCell>
        <mxCell id="95gSrrQeCEFWh76e7k1L-66" value="&lt;p style=&quot;line-height: 120%; font-size: 10px;&quot;&gt;&lt;font style=&quot;font-size: 10px;&quot; color=&quot;#ffffff&quot;&gt;&lt;span style=&quot;&quot;&gt;24 months&lt;br&gt;&lt;/span&gt;&lt;/font&gt;&lt;span style=&quot;background-color: initial;&quot;&gt;&lt;font style=&quot;font-size: 10px;&quot; color=&quot;#ffffff&quot;&gt;after entry&lt;br&gt;into force&lt;/font&gt;&lt;/span&gt;&lt;br&gt;&lt;/p&gt;" style="text;strokeColor=none;fillColor=none;html=1;fontSize=24;fontStyle=1;verticalAlign=middle;align=center;" vertex="1" parent="gH_hcZERuxUluIT7-EIQ-1">
          <mxGeometry x="811" y="932.25" width="58" height="55.5" as="geometry" />
        </mxCell>
        <mxCell id="95gSrrQeCEFWh76e7k1L-70" value="&lt;span style=&quot;font-weight:normal;&quot; id=&quot;docs-internal-guid-00c58ed5-7fff-5b8e-03cd-491ae91c646b&quot;&gt;&lt;span style=&quot;font-family: Arial, sans-serif; background-color: transparent; font-variant-numeric: normal; font-variant-east-asian: normal; font-variant-alternates: normal; font-variant-position: normal; vertical-align: baseline; white-space-collapse: preserve;&quot;&gt;&lt;font style=&quot;font-size: 11px;&quot;&gt;Application of the entire EU AI Act for all risk categories&lt;/font&gt;&lt;/span&gt;&lt;/span&gt;" style="shape=rect;rounded=1;html=1;shadow=0;strokeColor=none;fillColor=#006600;arcSize=30;fontSize=10;spacingLeft=5;fontStyle=1;fontColor=#FFFFFF;align=center;labelPosition=center;verticalLabelPosition=middle;verticalAlign=middle;whiteSpace=wrap;spacing=3;spacingRight=55;" vertex="1" parent="gH_hcZERuxUluIT7-EIQ-1">
          <mxGeometry x="777" y="1161" width="158" height="80" as="geometry" />
        </mxCell>
        <mxCell id="95gSrrQeCEFWh76e7k1L-71" value="" style="verticalLabelPosition=middle;verticalAlign=middle;html=1;shape=mxgraph.infographic.circularCallout2;dy=15;strokeColor=#006600;labelPosition=center;align=center;fontColor=#10739E;fontStyle=1;fontSize=24;shadow=0;direction=east;fillColor=#000000;rotation=-180;" vertex="1" parent="gH_hcZERuxUluIT7-EIQ-1">
          <mxGeometry x="880" y="1114" width="80" height="127" as="geometry" />
        </mxCell>
        <mxCell id="95gSrrQeCEFWh76e7k1L-73" value="&lt;p style=&quot;line-height: 120%; font-size: 10px;&quot;&gt;&lt;font style=&quot;font-size: 10px;&quot; color=&quot;#ffffff&quot;&gt;&lt;span style=&quot;&quot;&gt;36 months&lt;br&gt;&lt;/span&gt;&lt;/font&gt;&lt;span style=&quot;background-color: initial;&quot;&gt;&lt;font style=&quot;font-size: 10px;&quot; color=&quot;#ffffff&quot;&gt;after entry&lt;br&gt;into force&lt;/font&gt;&lt;/span&gt;&lt;br&gt;&lt;/p&gt;" style="text;strokeColor=none;fillColor=none;html=1;fontSize=24;fontStyle=1;verticalAlign=middle;align=center;" vertex="1" parent="gH_hcZERuxUluIT7-EIQ-1">
          <mxGeometry x="891" y="1173.25" width="58" height="55.5" as="geometry" />
        </mxCell>
      </root>
    </mxGraphModel>
  </diagram>
  <diagram id="6mlIB4idTHPZ-8wdA6mB" name="Horizontal">
    <mxGraphModel dx="2208" dy="1137" grid="1" gridSize="10" guides="1" tooltips="1" connect="1" arrows="1" fold="1" page="0" pageScale="1" pageWidth="827" pageHeight="1169" math="0" shadow="0">
      <root>
        <mxCell id="t1pzVsahw-ZZCcjiW1g3-0" />
        <mxCell id="t1pzVsahw-ZZCcjiW1g3-1" parent="t1pzVsahw-ZZCcjiW1g3-0" />
        <mxCell id="coYlbArJbQ59_Alc24LM-0" value="" style="fillColor=#dddddd;rounded=0;strokeColor=none;" vertex="1" parent="t1pzVsahw-ZZCcjiW1g3-1">
          <mxGeometry x="-160" y="97.5" width="840" height="30" as="geometry" />
        </mxCell>
        <mxCell id="coYlbArJbQ59_Alc24LM-1" value="Label" style="shape=mxgraph.infographic.ribbonSimple;notch1=0;notch2=10;notch=0;html=1;fillColor=#10739E;strokeColor=none;shadow=0;fontSize=17;fontColor=#FFFFFF;align=left;spacingLeft=10;fontStyle=1;" vertex="1" parent="t1pzVsahw-ZZCcjiW1g3-1">
          <mxGeometry x="-120" y="87.5" width="120" height="50" as="geometry" />
        </mxCell>
        <mxCell id="coYlbArJbQ59_Alc24LM-2" value="Label" style="shape=mxgraph.infographic.ribbonSimple;notch1=0;notch2=10;notch=0;html=1;fillColor=#F2931E;strokeColor=none;shadow=0;fontSize=17;fontColor=#FFFFFF;align=left;spacingLeft=10;fontStyle=1;" vertex="1" parent="t1pzVsahw-ZZCcjiW1g3-1">
          <mxGeometry x="40" y="87.5" width="120" height="50" as="geometry" />
        </mxCell>
        <mxCell id="coYlbArJbQ59_Alc24LM-3" value="Label" style="shape=mxgraph.infographic.ribbonSimple;notch1=0;notch2=10;notch=0;html=1;fillColor=#AE4132;strokeColor=none;shadow=0;fontSize=17;fontColor=#FFFFFF;align=left;spacingLeft=10;fontStyle=1;" vertex="1" parent="t1pzVsahw-ZZCcjiW1g3-1">
          <mxGeometry x="200" y="87.5" width="120" height="50" as="geometry" />
        </mxCell>
        <mxCell id="coYlbArJbQ59_Alc24LM-4" value="Label" style="shape=mxgraph.infographic.ribbonSimple;notch1=0;notch2=10;notch=0;html=1;fillColor=#23445D;strokeColor=none;shadow=0;fontSize=17;fontColor=#FFFFFF;align=left;spacingLeft=10;fontStyle=1;" vertex="1" parent="t1pzVsahw-ZZCcjiW1g3-1">
          <mxGeometry x="360" y="87.5" width="120" height="50" as="geometry" />
        </mxCell>
        <mxCell id="coYlbArJbQ59_Alc24LM-5" value="Label" style="shape=mxgraph.infographic.ribbonSimple;notch1=0;notch2=10;notch=0;html=1;fillColor=#12AAB5;strokeColor=none;shadow=0;fontSize=17;fontColor=#FFFFFF;align=left;spacingLeft=10;fontStyle=1;" vertex="1" parent="t1pzVsahw-ZZCcjiW1g3-1">
          <mxGeometry x="520" y="87.5" width="120" height="50" as="geometry" />
        </mxCell>
        <mxCell id="coYlbArJbQ59_Alc24LM-6" value="&lt;font style=&quot;font-size: 10px&quot;&gt;&lt;font style=&quot;font-size: 12px&quot; color=&quot;#10739E&quot;&gt;&lt;b&gt;Label&lt;/b&gt;&lt;/font&gt;&lt;br&gt;&lt;br&gt;&lt;font size=&quot;1&quot;&gt;Lorem ipsum dolor sit amet, consectetur adipisicing elit&lt;/font&gt;&lt;/font&gt;" style="rounded=1;strokeColor=none;fillColor=#DDDDDD;align=center;arcSize=12;verticalAlign=top;whiteSpace=wrap;html=1;fontSize=12;" vertex="1" parent="t1pzVsahw-ZZCcjiW1g3-1">
          <mxGeometry x="-160" y="7.5" width="200" height="70" as="geometry" />
        </mxCell>
        <mxCell id="coYlbArJbQ59_Alc24LM-7" value="&lt;font style=&quot;font-size: 10px&quot;&gt;&lt;font style=&quot;font-size: 12px&quot; color=&quot;#F2931E&quot;&gt;&lt;b&gt;Label&lt;/b&gt;&lt;/font&gt;&lt;br&gt;&lt;br&gt;&lt;font size=&quot;1&quot;&gt;Lorem ipsum dolor sit amet, consectetur adipisicing elit&lt;/font&gt;&lt;/font&gt;" style="rounded=1;strokeColor=none;fillColor=#DDDDDD;align=center;arcSize=12;verticalAlign=top;whiteSpace=wrap;html=1;fontSize=12;" vertex="1" parent="t1pzVsahw-ZZCcjiW1g3-1">
          <mxGeometry y="147.5" width="200" height="70" as="geometry" />
        </mxCell>
        <mxCell id="coYlbArJbQ59_Alc24LM-8" value="&lt;font style=&quot;font-size: 10px&quot;&gt;&lt;font style=&quot;font-size: 12px&quot; color=&quot;#AE4132&quot;&gt;&lt;b&gt;Label&lt;/b&gt;&lt;/font&gt;&lt;br&gt;&lt;br&gt;&lt;font size=&quot;1&quot;&gt;Lorem ipsum dolor sit amet, consectetur adipisicing elit&lt;/font&gt;&lt;/font&gt;" style="rounded=1;strokeColor=none;fillColor=#DDDDDD;align=center;arcSize=12;verticalAlign=top;whiteSpace=wrap;html=1;fontSize=12;" vertex="1" parent="t1pzVsahw-ZZCcjiW1g3-1">
          <mxGeometry x="160" y="7.5" width="200" height="70" as="geometry" />
        </mxCell>
        <mxCell id="coYlbArJbQ59_Alc24LM-9" value="&lt;font style=&quot;font-size: 10px&quot;&gt;&lt;font style=&quot;font-size: 12px&quot; color=&quot;#23445D&quot;&gt;&lt;b&gt;Label&lt;/b&gt;&lt;/font&gt;&lt;br&gt;&lt;br&gt;&lt;font size=&quot;1&quot;&gt;Lorem ipsum dolor sit amet, consectetur adipisicing elit&lt;/font&gt;&lt;/font&gt;" style="rounded=1;strokeColor=none;fillColor=#DDDDDD;align=center;arcSize=12;verticalAlign=top;whiteSpace=wrap;html=1;fontSize=12;" vertex="1" parent="t1pzVsahw-ZZCcjiW1g3-1">
          <mxGeometry x="320" y="147.5" width="200" height="70" as="geometry" />
        </mxCell>
        <mxCell id="coYlbArJbQ59_Alc24LM-10" value="&lt;font style=&quot;font-size: 10px&quot;&gt;&lt;font style=&quot;font-size: 12px&quot; color=&quot;#12AAB5&quot;&gt;&lt;b&gt;Label&lt;/b&gt;&lt;/font&gt;&lt;br&gt;&lt;br&gt;&lt;font size=&quot;1&quot;&gt;Lorem ipsum dolor sit amet, consectetur adipisicing elit&lt;/font&gt;&lt;/font&gt;" style="rounded=1;strokeColor=none;fillColor=#DDDDDD;align=center;arcSize=12;verticalAlign=top;whiteSpace=wrap;html=1;fontSize=12;" vertex="1" parent="t1pzVsahw-ZZCcjiW1g3-1">
          <mxGeometry x="480" y="7.5" width="200" height="70" as="geometry" />
        </mxCell>
        <mxCell id="coYlbArJbQ59_Alc24LM-11" value="" style="verticalLabelPosition=bottom;verticalAlign=top;html=1;shape=mxgraph.basic.partConcEllipse;startAngle=0.25;endAngle=0.75;arcWidth=0.25;fillColor=#10739E;strokeColor=none;" vertex="1" parent="t1pzVsahw-ZZCcjiW1g3-1">
          <mxGeometry x="760" y="122.5" width="120" height="120" as="geometry" />
        </mxCell>
        <mxCell id="coYlbArJbQ59_Alc24LM-12" value="" style="verticalLabelPosition=bottom;verticalAlign=top;html=1;shape=mxgraph.basic.partConcEllipse;startAngle=0.75;endAngle=0.25;arcWidth=0.25;fillColor=#F2931E;strokeColor=none;" vertex="1" parent="t1pzVsahw-ZZCcjiW1g3-1">
          <mxGeometry x="865" y="122.5" width="120" height="120" as="geometry" />
        </mxCell>
        <mxCell id="coYlbArJbQ59_Alc24LM-13" value="" style="verticalLabelPosition=bottom;verticalAlign=top;html=1;shape=mxgraph.basic.partConcEllipse;startAngle=0.25;endAngle=0.75;arcWidth=0.25;fillColor=#AE4132;strokeColor=none;" vertex="1" parent="t1pzVsahw-ZZCcjiW1g3-1">
          <mxGeometry x="970" y="122.5" width="120" height="120" as="geometry" />
        </mxCell>
        <mxCell id="coYlbArJbQ59_Alc24LM-14" value="" style="verticalLabelPosition=bottom;verticalAlign=top;html=1;shape=mxgraph.basic.partConcEllipse;startAngle=0.75;endAngle=0.25;arcWidth=0.25;fillColor=#23445D;strokeColor=none;" vertex="1" parent="t1pzVsahw-ZZCcjiW1g3-1">
          <mxGeometry x="1075" y="122.5" width="120" height="120" as="geometry" />
        </mxCell>
        <mxCell id="coYlbArJbQ59_Alc24LM-15" value="" style="verticalLabelPosition=bottom;verticalAlign=top;html=1;shape=mxgraph.basic.partConcEllipse;startAngle=0.25;endAngle=0.75;arcWidth=0.25;fillColor=#15AA96;strokeColor=none;" vertex="1" parent="t1pzVsahw-ZZCcjiW1g3-1">
          <mxGeometry x="1180" y="122.5" width="120" height="120" as="geometry" />
        </mxCell>
        <mxCell id="coYlbArJbQ59_Alc24LM-16" value="1" style="shape=ellipse;strokeWidth=6;strokeColor=#10739E;fontSize=15;html=0;fontStyle=1;fontColor=#10739E;" vertex="1" parent="t1pzVsahw-ZZCcjiW1g3-1">
          <mxGeometry x="795" y="157.5" width="50" height="50" as="geometry" />
        </mxCell>
        <mxCell id="coYlbArJbQ59_Alc24LM-17" value="2" style="shape=ellipse;strokeWidth=6;strokeColor=#F2931E;fontSize=15;html=0;fontStyle=1;fontColor=#F2931E;" vertex="1" parent="t1pzVsahw-ZZCcjiW1g3-1">
          <mxGeometry x="900" y="157.5" width="50" height="50" as="geometry" />
        </mxCell>
        <mxCell id="coYlbArJbQ59_Alc24LM-18" value="3" style="shape=ellipse;strokeWidth=6;strokeColor=#AE4132;fontSize=15;html=0;fontStyle=1;fontColor=#AE4132;" vertex="1" parent="t1pzVsahw-ZZCcjiW1g3-1">
          <mxGeometry x="1005" y="157.5" width="50" height="50" as="geometry" />
        </mxCell>
        <mxCell id="coYlbArJbQ59_Alc24LM-19" value="4" style="shape=ellipse;strokeWidth=6;strokeColor=#23445D;fontSize=15;html=0;fontStyle=1;fontColor=#23445D;" vertex="1" parent="t1pzVsahw-ZZCcjiW1g3-1">
          <mxGeometry x="1110" y="157.5" width="50" height="50" as="geometry" />
        </mxCell>
        <mxCell id="coYlbArJbQ59_Alc24LM-20" value="5" style="shape=ellipse;strokeWidth=6;strokeColor=#12AAB5;fontSize=15;html=0;fontStyle=1;fontColor=#12AAB5;" vertex="1" parent="t1pzVsahw-ZZCcjiW1g3-1">
          <mxGeometry x="1215" y="157.5" width="50" height="50" as="geometry" />
        </mxCell>
        <mxCell id="coYlbArJbQ59_Alc24LM-21" value="&lt;font style=&quot;font-size: 10px&quot;&gt;&lt;font style=&quot;font-size: 12px&quot; color=&quot;#10739E&quot;&gt;&lt;b&gt;Label&lt;/b&gt;&lt;/font&gt;&lt;br&gt;&lt;br&gt;&lt;font size=&quot;1&quot;&gt;Lorem ipsum dolor sit amet, consectetur adipisicing elit&lt;/font&gt;&lt;/font&gt;" style="rounded=1;strokeColor=none;fillColor=#EEEEEE;align=center;arcSize=12;verticalAlign=top;whiteSpace=wrap;html=1;fontSize=12;" vertex="1" parent="t1pzVsahw-ZZCcjiW1g3-1">
          <mxGeometry x="760" y="252.5" width="120" height="80" as="geometry" />
        </mxCell>
        <mxCell id="coYlbArJbQ59_Alc24LM-22" value="&lt;font style=&quot;font-size: 10px&quot;&gt;&lt;font style=&quot;font-size: 12px&quot; color=&quot;#F2931E&quot;&gt;&lt;b&gt;Label&lt;/b&gt;&lt;/font&gt;&lt;br&gt;&lt;br&gt;&lt;font size=&quot;1&quot;&gt;Lorem ipsum dolor sit amet, consectetur adipisicing elit&lt;/font&gt;&lt;/font&gt;" style="rounded=1;strokeColor=none;fillColor=#EEEEEE;align=center;arcSize=12;verticalAlign=top;whiteSpace=wrap;html=1;fontSize=12;" vertex="1" parent="t1pzVsahw-ZZCcjiW1g3-1">
          <mxGeometry x="865" y="32.5" width="120" height="80" as="geometry" />
        </mxCell>
        <mxCell id="coYlbArJbQ59_Alc24LM-23" value="&lt;font style=&quot;font-size: 10px&quot;&gt;&lt;font style=&quot;font-size: 12px&quot; color=&quot;#AE4132&quot;&gt;&lt;b&gt;Label&lt;/b&gt;&lt;/font&gt;&lt;br&gt;&lt;br&gt;&lt;font size=&quot;1&quot;&gt;Lorem ipsum dolor sit amet, consectetur adipisicing elit&lt;/font&gt;&lt;/font&gt;" style="rounded=1;strokeColor=none;fillColor=#EEEEEE;align=center;arcSize=12;verticalAlign=top;whiteSpace=wrap;html=1;fontSize=12;" vertex="1" parent="t1pzVsahw-ZZCcjiW1g3-1">
          <mxGeometry x="970" y="252.5" width="120" height="80" as="geometry" />
        </mxCell>
        <mxCell id="coYlbArJbQ59_Alc24LM-24" value="&lt;font style=&quot;font-size: 10px&quot;&gt;&lt;font style=&quot;font-size: 12px&quot; color=&quot;#23445D&quot;&gt;&lt;b&gt;Label&lt;/b&gt;&lt;/font&gt;&lt;br&gt;&lt;br&gt;&lt;font size=&quot;1&quot;&gt;Lorem ipsum dolor sit amet, consectetur adipisicing elit&lt;/font&gt;&lt;/font&gt;" style="rounded=1;strokeColor=none;fillColor=#EEEEEE;align=center;arcSize=12;verticalAlign=top;whiteSpace=wrap;html=1;fontSize=12;" vertex="1" parent="t1pzVsahw-ZZCcjiW1g3-1">
          <mxGeometry x="1075" y="32.5" width="120" height="80" as="geometry" />
        </mxCell>
        <mxCell id="coYlbArJbQ59_Alc24LM-25" value="&lt;font style=&quot;font-size: 10px&quot;&gt;&lt;font style=&quot;font-size: 12px&quot; color=&quot;#12AAB5&quot;&gt;&lt;b&gt;Label&lt;/b&gt;&lt;/font&gt;&lt;br&gt;&lt;br&gt;&lt;font size=&quot;1&quot;&gt;Lorem ipsum dolor sit amet, consectetur adipisicing elit&lt;/font&gt;&lt;/font&gt;" style="rounded=1;strokeColor=none;fillColor=#EEEEEE;align=center;arcSize=12;verticalAlign=top;whiteSpace=wrap;html=1;fontSize=12;" vertex="1" parent="t1pzVsahw-ZZCcjiW1g3-1">
          <mxGeometry x="1180" y="252.5" width="120" height="80" as="geometry" />
        </mxCell>
        <mxCell id="coYlbArJbQ59_Alc24LM-26" value="Label" style="html=1;shape=mxgraph.infographic.barCallout;dx=60;dy=30;fillColor=#10739E;strokeColor=none;align=center;verticalAlign=top;fontColor=#ffffff;fontSize=14;fontStyle=1;shadow=0;spacingTop=5;" vertex="1" parent="t1pzVsahw-ZZCcjiW1g3-1">
          <mxGeometry x="-90" y="295" width="120" height="70" as="geometry" />
        </mxCell>
        <mxCell id="coYlbArJbQ59_Alc24LM-27" value="Label" style="html=1;shape=mxgraph.infographic.barCallout;dx=80;dy=30;fillColor=#F2931E;strokeColor=none;align=center;verticalAlign=top;fontColor=#ffffff;fontSize=14;fontStyle=1;shadow=0;spacingTop=5;" vertex="1" parent="t1pzVsahw-ZZCcjiW1g3-1">
          <mxGeometry x="30" y="295" width="160" height="70" as="geometry" />
        </mxCell>
        <mxCell id="coYlbArJbQ59_Alc24LM-28" value="Label" style="html=1;shape=mxgraph.infographic.barCallout;dx=40;dy=30;fillColor=#AE4132;strokeColor=none;align=center;verticalAlign=top;fontColor=#ffffff;fontSize=14;fontStyle=1;shadow=0;spacingTop=5;" vertex="1" parent="t1pzVsahw-ZZCcjiW1g3-1">
          <mxGeometry x="190" y="295" width="80" height="70" as="geometry" />
        </mxCell>
        <mxCell id="coYlbArJbQ59_Alc24LM-29" value="Label" style="html=1;shape=mxgraph.infographic.barCallout;dx=100;dy=30;fillColor=#23445D;strokeColor=none;align=center;verticalAlign=top;fontColor=#ffffff;fontSize=14;fontStyle=1;shadow=0;spacingTop=5;" vertex="1" parent="t1pzVsahw-ZZCcjiW1g3-1">
          <mxGeometry x="270" y="295" width="200" height="70" as="geometry" />
        </mxCell>
        <mxCell id="coYlbArJbQ59_Alc24LM-30" value="Label" style="html=1;shape=mxgraph.infographic.barCallout;dx=70;dy=30;fillColor=#12AAB5;strokeColor=none;align=center;verticalAlign=top;fontColor=#ffffff;fontSize=14;fontStyle=1;shadow=0;spacingTop=5;" vertex="1" parent="t1pzVsahw-ZZCcjiW1g3-1">
          <mxGeometry x="470" y="295" width="140" height="70" as="geometry" />
        </mxCell>
        <mxCell id="coYlbArJbQ59_Alc24LM-31" value="1" style="ellipse;whiteSpace=wrap;html=1;aspect=fixed;shadow=0;strokeColor=#10739E;strokeWidth=6;fontSize=16;align=center;fontStyle=1" vertex="1" parent="t1pzVsahw-ZZCcjiW1g3-1">
          <mxGeometry x="-50" y="370" width="40" height="40" as="geometry" />
        </mxCell>
        <mxCell id="coYlbArJbQ59_Alc24LM-32" value="2" style="ellipse;whiteSpace=wrap;html=1;aspect=fixed;shadow=0;strokeColor=#F2931E;strokeWidth=6;fontSize=16;align=center;fontStyle=1" vertex="1" parent="t1pzVsahw-ZZCcjiW1g3-1">
          <mxGeometry x="90" y="370" width="40" height="40" as="geometry" />
        </mxCell>
        <mxCell id="coYlbArJbQ59_Alc24LM-33" value="3" style="ellipse;whiteSpace=wrap;html=1;aspect=fixed;shadow=0;strokeColor=#AE4132;strokeWidth=6;fontSize=16;align=center;fontStyle=1" vertex="1" parent="t1pzVsahw-ZZCcjiW1g3-1">
          <mxGeometry x="210" y="370" width="40" height="40" as="geometry" />
        </mxCell>
        <mxCell id="coYlbArJbQ59_Alc24LM-34" value="4" style="ellipse;whiteSpace=wrap;html=1;aspect=fixed;shadow=0;strokeColor=#23445D;strokeWidth=6;fontSize=16;align=center;fontStyle=1" vertex="1" parent="t1pzVsahw-ZZCcjiW1g3-1">
          <mxGeometry x="350" y="370" width="40" height="40" as="geometry" />
        </mxCell>
        <mxCell id="coYlbArJbQ59_Alc24LM-35" value="5" style="ellipse;whiteSpace=wrap;html=1;aspect=fixed;shadow=0;strokeColor=#12AAB5;strokeWidth=6;fontSize=16;align=center;fontStyle=1" vertex="1" parent="t1pzVsahw-ZZCcjiW1g3-1">
          <mxGeometry x="520" y="370" width="40" height="40" as="geometry" />
        </mxCell>
      </root>
    </mxGraphModel>
  </diagram>
  <diagram id="awqtMdvM-HQkiugRk4_Y" name="Angled">
    <mxGraphModel dx="1950" dy="1374" grid="1" gridSize="10" guides="1" tooltips="1" connect="1" arrows="1" fold="1" page="0" pageScale="1" pageWidth="827" pageHeight="1169" math="0" shadow="0">
      <root>
        <mxCell id="ChlEzymsBXQdgu6JHZ51-0" />
        <mxCell id="ChlEzymsBXQdgu6JHZ51-1" parent="ChlEzymsBXQdgu6JHZ51-0" />
        <mxCell id="ChlEzymsBXQdgu6JHZ51-2" value="" style="verticalLabelPosition=bottom;verticalAlign=top;html=1;shape=mxgraph.basic.partConcEllipse;startAngle=0.75;endAngle=0.5;arcWidth=0.25;fillColor=#10739E;strokeColor=none;shadow=0;" vertex="1" parent="ChlEzymsBXQdgu6JHZ51-1">
          <mxGeometry x="-130" y="-50" width="120" height="120" as="geometry" />
        </mxCell>
        <mxCell id="ChlEzymsBXQdgu6JHZ51-3" value="" style="verticalLabelPosition=bottom;verticalAlign=top;html=1;shape=mxgraph.basic.partConcEllipse;startAngle=0.25;endAngle=0;arcWidth=0.25;fillColor=#F2931E;strokeColor=none;shadow=0;" vertex="1" parent="ChlEzymsBXQdgu6JHZ51-1">
          <mxGeometry x="-130" y="55" width="120" height="120" as="geometry" />
        </mxCell>
        <mxCell id="ChlEzymsBXQdgu6JHZ51-4" value="" style="verticalLabelPosition=bottom;verticalAlign=top;html=1;shape=mxgraph.basic.partConcEllipse;startAngle=0.75;endAngle=0.5;arcWidth=0.25;fillColor=#AE4132;strokeColor=none;shadow=0;" vertex="1" parent="ChlEzymsBXQdgu6JHZ51-1">
          <mxGeometry x="-25" y="55" width="120" height="120" as="geometry" />
        </mxCell>
        <mxCell id="ChlEzymsBXQdgu6JHZ51-5" value="" style="verticalLabelPosition=bottom;verticalAlign=top;html=1;shape=mxgraph.basic.partConcEllipse;startAngle=0.25;endAngle=0;arcWidth=0.25;fillColor=#23445D;strokeColor=none;shadow=0;" vertex="1" parent="ChlEzymsBXQdgu6JHZ51-1">
          <mxGeometry x="-25" y="160" width="120" height="120" as="geometry" />
        </mxCell>
        <mxCell id="ChlEzymsBXQdgu6JHZ51-6" value="" style="verticalLabelPosition=bottom;verticalAlign=top;html=1;shape=mxgraph.basic.partConcEllipse;startAngle=0.75;endAngle=0.5;arcWidth=0.25;fillColor=#12AAB5;strokeColor=none;shadow=0;" vertex="1" parent="ChlEzymsBXQdgu6JHZ51-1">
          <mxGeometry x="80" y="160" width="120" height="120" as="geometry" />
        </mxCell>
        <mxCell id="ChlEzymsBXQdgu6JHZ51-7" value="1" style="shape=ellipse;strokeWidth=6;strokeColor=#10739E;fontSize=15;html=1;fontStyle=1;fontColor=#10739E;shadow=1;" vertex="1" parent="ChlEzymsBXQdgu6JHZ51-1">
          <mxGeometry x="-95" y="-15" width="50" height="50" as="geometry" />
        </mxCell>
        <mxCell id="ChlEzymsBXQdgu6JHZ51-8" value="2" style="shape=ellipse;strokeWidth=6;strokeColor=#F2931E;fontSize=15;html=1;fontStyle=1;fontColor=#F2931E;shadow=1;" vertex="1" parent="ChlEzymsBXQdgu6JHZ51-1">
          <mxGeometry x="-95" y="90" width="50" height="50" as="geometry" />
        </mxCell>
        <mxCell id="ChlEzymsBXQdgu6JHZ51-9" value="3" style="shape=ellipse;strokeWidth=6;strokeColor=#AE4132;fontSize=15;html=1;fontStyle=1;fontColor=#AE4132;shadow=1;" vertex="1" parent="ChlEzymsBXQdgu6JHZ51-1">
          <mxGeometry x="10" y="90" width="50" height="50" as="geometry" />
        </mxCell>
        <mxCell id="ChlEzymsBXQdgu6JHZ51-10" value="4" style="shape=ellipse;strokeWidth=6;strokeColor=#23445D;fontSize=15;html=1;fontStyle=1;fontColor=#23445D;shadow=1;" vertex="1" parent="ChlEzymsBXQdgu6JHZ51-1">
          <mxGeometry x="10" y="195" width="50" height="50" as="geometry" />
        </mxCell>
        <mxCell id="ChlEzymsBXQdgu6JHZ51-11" value="5" style="shape=ellipse;strokeWidth=6;strokeColor=#12AAB5;fontSize=15;html=1;fontStyle=1;fontColor=#12AAB5;shadow=1;" vertex="1" parent="ChlEzymsBXQdgu6JHZ51-1">
          <mxGeometry x="115" y="195" width="50" height="50" as="geometry" />
        </mxCell>
        <mxCell id="ChlEzymsBXQdgu6JHZ51-12" value="&lt;font style=&quot;font-size: 10px&quot;&gt;&lt;font style=&quot;font-size: 12px&quot; color=&quot;#10739E&quot;&gt;&lt;b&gt;Label&lt;/b&gt;&lt;/font&gt;&lt;br&gt;&lt;br&gt;&lt;font size=&quot;1&quot;&gt;Lorem ipsum dolor sit amet, consectetur adipisicing elit&lt;/font&gt;&lt;/font&gt;" style="rounded=1;strokeColor=none;fillColor=#EEEEEE;align=center;arcSize=12;verticalAlign=top;whiteSpace=wrap;html=1;fontSize=12;spacing=3;shadow=0;" vertex="1" parent="ChlEzymsBXQdgu6JHZ51-1">
          <mxGeometry y="-30" width="180" height="70" as="geometry" />
        </mxCell>
        <mxCell id="ChlEzymsBXQdgu6JHZ51-13" value="&lt;font style=&quot;font-size: 10px&quot;&gt;&lt;font style=&quot;font-size: 12px&quot; color=&quot;#F2931E&quot;&gt;&lt;b&gt;Label&lt;/b&gt;&lt;/font&gt;&lt;br&gt;&lt;br&gt;&lt;font size=&quot;1&quot;&gt;Lorem ipsum dolor sit amet, consectetur adipisicing elit&lt;/font&gt;&lt;/font&gt;" style="rounded=1;strokeColor=none;fillColor=#EEEEEE;align=center;arcSize=12;verticalAlign=top;whiteSpace=wrap;html=1;fontSize=12;spacing=3;shadow=0;" vertex="1" parent="ChlEzymsBXQdgu6JHZ51-1">
          <mxGeometry x="-320" y="80" width="180" height="70" as="geometry" />
        </mxCell>
        <mxCell id="ChlEzymsBXQdgu6JHZ51-14" value="&lt;font style=&quot;font-size: 10px&quot;&gt;&lt;font style=&quot;font-size: 12px&quot; color=&quot;#AE4132&quot;&gt;&lt;b&gt;Label&lt;/b&gt;&lt;/font&gt;&lt;br&gt;&lt;br&gt;&lt;font size=&quot;1&quot;&gt;Lorem ipsum dolor sit amet, consectetur adipisicing elit&lt;/font&gt;&lt;/font&gt;" style="rounded=1;strokeColor=none;fillColor=#EEEEEE;align=center;arcSize=12;verticalAlign=top;whiteSpace=wrap;html=1;fontSize=12;spacing=3;shadow=0;" vertex="1" parent="ChlEzymsBXQdgu6JHZ51-1">
          <mxGeometry x="105" y="80" width="180" height="70" as="geometry" />
        </mxCell>
        <mxCell id="ChlEzymsBXQdgu6JHZ51-15" value="&lt;font style=&quot;font-size: 10px&quot;&gt;&lt;font style=&quot;font-size: 12px&quot; color=&quot;#23445D&quot;&gt;&lt;b&gt;Label&lt;/b&gt;&lt;/font&gt;&lt;br&gt;&lt;br&gt;&lt;font size=&quot;1&quot;&gt;Lorem ipsum dolor sit amet, consectetur adipisicing elit&lt;/font&gt;&lt;/font&gt;" style="rounded=1;strokeColor=none;fillColor=#EEEEEE;align=center;arcSize=12;verticalAlign=top;whiteSpace=wrap;html=1;fontSize=12;spacing=3;shadow=0;" vertex="1" parent="ChlEzymsBXQdgu6JHZ51-1">
          <mxGeometry x="-215" y="185" width="180" height="70" as="geometry" />
        </mxCell>
        <mxCell id="ChlEzymsBXQdgu6JHZ51-16" value="&lt;font style=&quot;font-size: 10px&quot;&gt;&lt;font style=&quot;font-size: 12px&quot; color=&quot;#12AAB5&quot;&gt;&lt;b&gt;Label&lt;/b&gt;&lt;/font&gt;&lt;br&gt;&lt;br&gt;&lt;font size=&quot;1&quot;&gt;Lorem ipsum dolor sit amet, consectetur adipisicing elit&lt;/font&gt;&lt;/font&gt;" style="rounded=1;strokeColor=none;fillColor=#EEEEEE;align=center;arcSize=12;verticalAlign=top;whiteSpace=wrap;html=1;fontSize=12;spacing=3;shadow=0;" vertex="1" parent="ChlEzymsBXQdgu6JHZ51-1">
          <mxGeometry x="210" y="185" width="180" height="70" as="geometry" />
        </mxCell>
        <mxCell id="ChlEzymsBXQdgu6JHZ51-27" value="1" style="html=1;fillColor=#10739E;strokeColor=none;shadow=0;fontSize=17;fontColor=#FFFFFF;align=center;fontStyle=1;rounded=0;" vertex="1" parent="ChlEzymsBXQdgu6JHZ51-1">
          <mxGeometry x="440" y="5" width="40" height="40" as="geometry" />
        </mxCell>
        <mxCell id="ChlEzymsBXQdgu6JHZ51-28" value="Label" style="shape=mxgraph.infographic.ribbonSimple;notch1=0;notch2=10;notch=0;html=1;fillColor=#64BBE2;strokeColor=none;shadow=0;fontSize=17;fontColor=#FFFFFF;align=left;spacingLeft=10;fontStyle=1;" vertex="1" parent="ChlEzymsBXQdgu6JHZ51-1">
          <mxGeometry x="485" y="5" width="95" height="40" as="geometry" />
        </mxCell>
        <mxCell id="ChlEzymsBXQdgu6JHZ51-29" value="2" style="html=1;fillColor=#F2931E;strokeColor=none;shadow=0;fontSize=17;fontColor=#FFFFFF;align=center;fontStyle=1;rounded=0;" vertex="1" parent="ChlEzymsBXQdgu6JHZ51-1">
          <mxGeometry x="440" y="50" width="40" height="40" as="geometry" />
        </mxCell>
        <mxCell id="ChlEzymsBXQdgu6JHZ51-30" value="Label" style="shape=mxgraph.infographic.ribbonSimple;notch1=0;notch2=10;notch=0;html=1;fillColor=#F8C382;strokeColor=none;shadow=0;fontSize=17;fontColor=#FFFFFF;align=left;spacingLeft=10;fontStyle=1;" vertex="1" parent="ChlEzymsBXQdgu6JHZ51-1">
          <mxGeometry x="485" y="50" width="115" height="40" as="geometry" />
        </mxCell>
        <mxCell id="ChlEzymsBXQdgu6JHZ51-31" value="3" style="html=1;fillColor=#AE4132;strokeColor=none;shadow=0;fontSize=17;fontColor=#FFFFFF;align=center;fontStyle=1;rounded=0;" vertex="1" parent="ChlEzymsBXQdgu6JHZ51-1">
          <mxGeometry x="440" y="95" width="40" height="40" as="geometry" />
        </mxCell>
        <mxCell id="ChlEzymsBXQdgu6JHZ51-32" value="Label" style="shape=mxgraph.infographic.ribbonSimple;notch1=0;notch2=10;notch=0;html=1;fillColor=#F08E81;strokeColor=none;shadow=0;fontSize=17;fontColor=#FFFFFF;align=left;spacingLeft=10;fontStyle=1;" vertex="1" parent="ChlEzymsBXQdgu6JHZ51-1">
          <mxGeometry x="485" y="95" width="135" height="40" as="geometry" />
        </mxCell>
        <mxCell id="ChlEzymsBXQdgu6JHZ51-33" value="4" style="html=1;fillColor=#23445D;strokeColor=none;shadow=0;fontSize=17;fontColor=#FFFFFF;align=center;fontStyle=1;rounded=0;" vertex="1" parent="ChlEzymsBXQdgu6JHZ51-1">
          <mxGeometry x="440" y="140" width="40" height="40" as="geometry" />
        </mxCell>
        <mxCell id="ChlEzymsBXQdgu6JHZ51-34" value="Label" style="shape=mxgraph.infographic.ribbonSimple;notch1=0;notch2=10;notch=0;html=1;fillColor=#5D7F99;strokeColor=none;shadow=0;fontSize=17;fontColor=#FFFFFF;align=left;spacingLeft=10;fontStyle=1;" vertex="1" parent="ChlEzymsBXQdgu6JHZ51-1">
          <mxGeometry x="485" y="140" width="155" height="40" as="geometry" />
        </mxCell>
        <mxCell id="ChlEzymsBXQdgu6JHZ51-35" value="5" style="html=1;fillColor=#12AAB5;strokeColor=none;shadow=0;fontSize=17;fontColor=#FFFFFF;align=center;fontStyle=1;rounded=0;" vertex="1" parent="ChlEzymsBXQdgu6JHZ51-1">
          <mxGeometry x="440" y="185" width="40" height="40" as="geometry" />
        </mxCell>
        <mxCell id="ChlEzymsBXQdgu6JHZ51-36" value="Label" style="shape=mxgraph.infographic.ribbonSimple;notch1=0;notch2=10;notch=0;html=1;fillColor=#61C6CE;strokeColor=none;shadow=0;fontSize=17;fontColor=#FFFFFF;align=left;spacingLeft=10;fontStyle=1;" vertex="1" parent="ChlEzymsBXQdgu6JHZ51-1">
          <mxGeometry x="485" y="185" width="175" height="40" as="geometry" />
        </mxCell>
      </root>
    </mxGraphModel>
  </diagram>
  <diagram id="1zcTAVt1k4KSup7FvAfL" name="Detailed">
    <mxGraphModel dx="1950" dy="974" grid="1" gridSize="10" guides="1" tooltips="1" connect="1" arrows="1" fold="1" page="0" pageScale="1" pageWidth="827" pageHeight="1169" math="0" shadow="0">
      <root>
        <mxCell id="3D7FDG2aXA9G618_Kong-0" />
        <mxCell id="3D7FDG2aXA9G618_Kong-1" parent="3D7FDG2aXA9G618_Kong-0" />
        <mxCell id="3D7FDG2aXA9G618_Kong-2" value="LABEL" style="shape=step;perimeter=stepPerimeter;whiteSpace=wrap;html=1;fixedSize=1;size=10;fillColor=#10739E;strokeColor=none;fontSize=17;fontColor=#FFFFFF;fontStyle=1;align=center;rounded=0;" vertex="1" parent="3D7FDG2aXA9G618_Kong-1">
          <mxGeometry x="-280" y="120" width="200" height="30" as="geometry" />
        </mxCell>
        <mxCell id="3D7FDG2aXA9G618_Kong-3" value="LABEL" style="shape=step;perimeter=stepPerimeter;whiteSpace=wrap;html=1;fixedSize=1;size=10;fillColor=#F2931E;strokeColor=none;fontSize=17;fontColor=#FFFFFF;fontStyle=1;align=center;rounded=0;" vertex="1" parent="3D7FDG2aXA9G618_Kong-1">
          <mxGeometry x="-80" y="120" width="200" height="30" as="geometry" />
        </mxCell>
        <mxCell id="3D7FDG2aXA9G618_Kong-4" value="LABEL" style="shape=step;perimeter=stepPerimeter;whiteSpace=wrap;html=1;fixedSize=1;size=10;fillColor=#AE4132;strokeColor=none;fontSize=17;fontColor=#FFFFFF;fontStyle=1;align=center;rounded=0;" vertex="1" parent="3D7FDG2aXA9G618_Kong-1">
          <mxGeometry x="120" y="120" width="200" height="30" as="geometry" />
        </mxCell>
        <mxCell id="3D7FDG2aXA9G618_Kong-5" value="LABEL" style="shape=step;perimeter=stepPerimeter;whiteSpace=wrap;html=1;fixedSize=1;size=10;fillColor=#23445D;strokeColor=none;fontSize=17;fontColor=#FFFFFF;fontStyle=1;align=center;rounded=0;" vertex="1" parent="3D7FDG2aXA9G618_Kong-1">
          <mxGeometry x="320" y="120" width="200" height="30" as="geometry" />
        </mxCell>
        <mxCell id="3D7FDG2aXA9G618_Kong-6" value="LABEL" style="shape=step;perimeter=stepPerimeter;whiteSpace=wrap;html=1;fixedSize=1;size=10;fillColor=#12AAB5;strokeColor=none;fontSize=17;fontColor=#FFFFFF;fontStyle=1;align=center;rounded=0;" vertex="1" parent="3D7FDG2aXA9G618_Kong-1">
          <mxGeometry x="520" y="120" width="200" height="30" as="geometry" />
        </mxCell>
        <mxCell id="3D7FDG2aXA9G618_Kong-7" value="&amp;nbsp;- Lorem ipsum dolor sit amet&lt;br&gt;&amp;nbsp;- consectetur adipisicing elit&lt;br&gt;&amp;nbsp;- sed do eiusmod tempor&lt;br&gt;&amp;nbsp;- incididunt ut labore et dolore&lt;br&gt;&amp;nbsp;- magna aliqua." style="shape=rect;fillColor=#B1DDF0;strokeColor=none;fontSize=12;html=1;whiteSpace=wrap;align=left;verticalAlign=top;spacing=5;rounded=0;" vertex="1" parent="3D7FDG2aXA9G618_Kong-1">
          <mxGeometry x="-280" y="160" width="190" height="120" as="geometry" />
        </mxCell>
        <mxCell id="3D7FDG2aXA9G618_Kong-8" value="&amp;nbsp;- Lorem ipsum dolor sit amet&lt;br&gt;&amp;nbsp;- consectetur adipisicing elit&lt;br&gt;&amp;nbsp;- sed do eiusmod tempor&lt;br&gt;&amp;nbsp;- incididunt ut labore et dolore&lt;br&gt;&amp;nbsp;- magna aliqua." style="shape=rect;fillColor=#B1DDF0;strokeColor=none;fontSize=12;html=1;whiteSpace=wrap;align=left;verticalAlign=top;spacing=5;rounded=0;" vertex="1" parent="3D7FDG2aXA9G618_Kong-1">
          <mxGeometry x="-280" y="290" width="190" height="120" as="geometry" />
        </mxCell>
        <mxCell id="3D7FDG2aXA9G618_Kong-9" value="&amp;nbsp;- Lorem ipsum dolor sit amet&lt;br&gt;&amp;nbsp;- consectetur adipisicing elit&lt;br&gt;&amp;nbsp;- sed do eiusmod tempor&lt;br&gt;&amp;nbsp;- incididunt ut labore et dolore&lt;br&gt;&amp;nbsp;- magna aliqua." style="shape=rect;fillColor=#B1DDF0;strokeColor=none;fontSize=12;html=1;whiteSpace=wrap;align=left;verticalAlign=top;spacing=5;rounded=0;" vertex="1" parent="3D7FDG2aXA9G618_Kong-1">
          <mxGeometry x="-280" y="420" width="190" height="120" as="geometry" />
        </mxCell>
        <mxCell id="3D7FDG2aXA9G618_Kong-10" value="&amp;nbsp;- Lorem ipsum dolor sit amet&lt;br&gt;&amp;nbsp;- consectetur adipisicing elit&lt;br&gt;&amp;nbsp;- sed do eiusmod tempor&lt;br&gt;&amp;nbsp;- incididunt ut labore et dolore&lt;br&gt;&amp;nbsp;- magna aliqua." style="shape=rect;fillColor=#FCE7CD;strokeColor=none;fontSize=12;html=1;whiteSpace=wrap;align=left;verticalAlign=top;spacing=5;rounded=0;" vertex="1" parent="3D7FDG2aXA9G618_Kong-1">
          <mxGeometry x="-80" y="160" width="190" height="120" as="geometry" />
        </mxCell>
        <mxCell id="3D7FDG2aXA9G618_Kong-11" value="&amp;nbsp;- Lorem ipsum dolor sit amet&lt;br&gt;&amp;nbsp;- consectetur adipisicing elit&lt;br&gt;&amp;nbsp;- sed do eiusmod tempor&lt;br&gt;&amp;nbsp;- incididunt ut labore et dolore&lt;br&gt;&amp;nbsp;- magna aliqua." style="shape=rect;fillColor=#FCE7CD;strokeColor=none;fontSize=12;html=1;whiteSpace=wrap;align=left;verticalAlign=top;spacing=5;rounded=0;" vertex="1" parent="3D7FDG2aXA9G618_Kong-1">
          <mxGeometry x="-80" y="290" width="190" height="120" as="geometry" />
        </mxCell>
        <mxCell id="3D7FDG2aXA9G618_Kong-12" value="&amp;nbsp;- Lorem ipsum dolor sit amet&lt;br&gt;&amp;nbsp;- consectetur adipisicing elit&lt;br&gt;&amp;nbsp;- sed do eiusmod tempor&lt;br&gt;&amp;nbsp;- incididunt ut labore et dolore&lt;br&gt;&amp;nbsp;- magna aliqua." style="shape=rect;fillColor=#FCE7CD;strokeColor=none;fontSize=12;html=1;whiteSpace=wrap;align=left;verticalAlign=top;spacing=5;rounded=0;" vertex="1" parent="3D7FDG2aXA9G618_Kong-1">
          <mxGeometry x="-80" y="420" width="190" height="120" as="geometry" />
        </mxCell>
        <mxCell id="3D7FDG2aXA9G618_Kong-13" value="&amp;nbsp;- Lorem ipsum dolor sit amet&lt;br&gt;&amp;nbsp;- consectetur adipisicing elit&lt;br&gt;&amp;nbsp;- sed do eiusmod tempor&lt;br&gt;&amp;nbsp;- incididunt ut labore et dolore&lt;br&gt;&amp;nbsp;- magna aliqua." style="shape=rect;fillColor=#FAD9D5;strokeColor=none;fontSize=12;html=1;whiteSpace=wrap;align=left;verticalAlign=top;spacing=5;rounded=0;" vertex="1" parent="3D7FDG2aXA9G618_Kong-1">
          <mxGeometry x="120" y="160" width="190" height="120" as="geometry" />
        </mxCell>
        <mxCell id="3D7FDG2aXA9G618_Kong-14" value="&amp;nbsp;- Lorem ipsum dolor sit amet&lt;br&gt;&amp;nbsp;- consectetur adipisicing elit&lt;br&gt;&amp;nbsp;- sed do eiusmod tempor&lt;br&gt;&amp;nbsp;- incididunt ut labore et dolore&lt;br&gt;&amp;nbsp;- magna aliqua." style="shape=rect;fillColor=#FAD9D5;strokeColor=none;fontSize=12;html=1;whiteSpace=wrap;align=left;verticalAlign=top;spacing=5;rounded=0;" vertex="1" parent="3D7FDG2aXA9G618_Kong-1">
          <mxGeometry x="120" y="290" width="190" height="120" as="geometry" />
        </mxCell>
        <mxCell id="3D7FDG2aXA9G618_Kong-15" value="&amp;nbsp;- Lorem ipsum dolor sit amet&lt;br&gt;&amp;nbsp;- consectetur adipisicing elit&lt;br&gt;&amp;nbsp;- sed do eiusmod tempor&lt;br&gt;&amp;nbsp;- incididunt ut labore et dolore&lt;br&gt;&amp;nbsp;- magna aliqua." style="shape=rect;fillColor=#FAD9D5;strokeColor=none;fontSize=12;html=1;whiteSpace=wrap;align=left;verticalAlign=top;spacing=5;rounded=0;" vertex="1" parent="3D7FDG2aXA9G618_Kong-1">
          <mxGeometry x="120" y="420" width="190" height="120" as="geometry" />
        </mxCell>
        <mxCell id="3D7FDG2aXA9G618_Kong-16" value="&amp;nbsp;- Lorem ipsum dolor sit amet&lt;br&gt;&amp;nbsp;- consectetur adipisicing elit&lt;br&gt;&amp;nbsp;- sed do eiusmod tempor&lt;br&gt;&amp;nbsp;- incididunt ut labore et dolore&lt;br&gt;&amp;nbsp;- magna aliqua." style="shape=rect;fillColor=#BAC8D3;strokeColor=none;fontSize=12;html=1;whiteSpace=wrap;align=left;verticalAlign=top;spacing=5;rounded=0;" vertex="1" parent="3D7FDG2aXA9G618_Kong-1">
          <mxGeometry x="320" y="160" width="190" height="120" as="geometry" />
        </mxCell>
        <mxCell id="3D7FDG2aXA9G618_Kong-17" value="&amp;nbsp;- Lorem ipsum dolor sit amet&lt;br&gt;&amp;nbsp;- consectetur adipisicing elit&lt;br&gt;&amp;nbsp;- sed do eiusmod tempor&lt;br&gt;&amp;nbsp;- incididunt ut labore et dolore&lt;br&gt;&amp;nbsp;- magna aliqua." style="shape=rect;fillColor=#BAC8D3;strokeColor=none;fontSize=12;html=1;whiteSpace=wrap;align=left;verticalAlign=top;spacing=5;rounded=0;" vertex="1" parent="3D7FDG2aXA9G618_Kong-1">
          <mxGeometry x="320" y="290" width="190" height="120" as="geometry" />
        </mxCell>
        <mxCell id="3D7FDG2aXA9G618_Kong-18" value="&amp;nbsp;- Lorem ipsum dolor sit amet&lt;br&gt;&amp;nbsp;- consectetur adipisicing elit&lt;br&gt;&amp;nbsp;- sed do eiusmod tempor&lt;br&gt;&amp;nbsp;- incididunt ut labore et dolore&lt;br&gt;&amp;nbsp;- magna aliqua." style="shape=rect;fillColor=#BAC8D3;strokeColor=none;fontSize=12;html=1;whiteSpace=wrap;align=left;verticalAlign=top;spacing=5;rounded=0;" vertex="1" parent="3D7FDG2aXA9G618_Kong-1">
          <mxGeometry x="320" y="420" width="190" height="120" as="geometry" />
        </mxCell>
        <mxCell id="3D7FDG2aXA9G618_Kong-19" value="&amp;nbsp;- Lorem ipsum dolor sit amet&lt;br&gt;&amp;nbsp;- consectetur adipisicing elit&lt;br&gt;&amp;nbsp;- sed do eiusmod tempor&lt;br&gt;&amp;nbsp;- incididunt ut labore et dolore&lt;br&gt;&amp;nbsp;- magna aliqua." style="shape=rect;fillColor=#B0E3E6;strokeColor=none;fontSize=12;html=1;whiteSpace=wrap;align=left;verticalAlign=top;spacing=5;rounded=0;" vertex="1" parent="3D7FDG2aXA9G618_Kong-1">
          <mxGeometry x="520" y="160" width="190" height="120" as="geometry" />
        </mxCell>
        <mxCell id="3D7FDG2aXA9G618_Kong-20" value="&amp;nbsp;- Lorem ipsum dolor sit amet&lt;br&gt;&amp;nbsp;- consectetur adipisicing elit&lt;br&gt;&amp;nbsp;- sed do eiusmod tempor&lt;br&gt;&amp;nbsp;- incididunt ut labore et dolore&lt;br&gt;&amp;nbsp;- magna aliqua." style="shape=rect;fillColor=#B0E3E6;strokeColor=none;fontSize=12;html=1;whiteSpace=wrap;align=left;verticalAlign=top;spacing=5;rounded=0;" vertex="1" parent="3D7FDG2aXA9G618_Kong-1">
          <mxGeometry x="520" y="290" width="190" height="120" as="geometry" />
        </mxCell>
        <mxCell id="3D7FDG2aXA9G618_Kong-21" value="&amp;nbsp;- Lorem ipsum dolor sit amet&lt;br&gt;&amp;nbsp;- consectetur adipisicing elit&lt;br&gt;&amp;nbsp;- sed do eiusmod tempor&lt;br&gt;&amp;nbsp;- incididunt ut labore et dolore&lt;br&gt;&amp;nbsp;- magna aliqua." style="shape=rect;fillColor=#B0E3E6;strokeColor=none;fontSize=12;html=1;whiteSpace=wrap;align=left;verticalAlign=top;spacing=5;rounded=0;" vertex="1" parent="3D7FDG2aXA9G618_Kong-1">
          <mxGeometry x="520" y="420" width="190" height="120" as="geometry" />
        </mxCell>
      </root>
    </mxGraphModel>
  </diagram>
</mxfile>
